<?xml version="1.0" encoding="utf-8"?>
<!-- Generator: Adobe Illustrator 26.5.0, SVG Export Plug-In . SVG Version: 6.00 Build 0)  -->
<svg version="1.1" id="Layer_1" xmlns="http://www.w3.org/2000/svg" xmlns:xlink="http://www.w3.org/1999/xlink" x="0px" y="0px"
	 viewBox="0 0 542 211" style="enable-background:new 0 0 542 211;" xml:space="preserve">
<style type="text/css">
	.st0{fill:#575756;}
	.st1{fill:#1D1D1B;}
	.st2{fill:none;stroke:#3C3C3B;stroke-width:0.804;stroke-miterlimit:10;}
	.st3{fill:#E84434;}
	.st4{fill:none;stroke:#4E2B15;stroke-width:0.804;stroke-linecap:round;stroke-linejoin:round;}
	.st5{fill:#B4DEF5;}
	.st6{fill:none;stroke:#4E2B16;stroke-width:0.804;stroke-linecap:round;stroke-linejoin:round;}
	.st7{fill:#B81619;}
	.st8{fill:#F8F6E9;}
	.st9{fill:#EF7D00;}
	.st10{fill:#FCC133;}
	.st11{fill:#36A9E1;}
	.st12{fill:#1D71B8;}
	.st13{fill:#006533;}
	.st14{fill:#2FAC66;}
	.st15{fill:none;stroke:#4D2C17;stroke-width:0.804;stroke-linecap:round;stroke-linejoin:round;}
</style>
<g>
	<path class="st0" d="M253.7241211,98.9165039V30.6938477h27.8740234c8.0556641,0,14.4243164,2.1777344,19.1020508,6.5302734
		c4.6782227,4.3535156,7.0170898,10.1035156,7.0170898,17.2504883c0,7.6015625-2.5991211,13.4980469-7.7963867,17.6889648
		c-5.1992188,4.190918-11.7929688,6.2861328-19.784668,6.2861328h-11.402832v20.4667969H253.7241211z M268.7333984,65.0976562
		h11.8901367c3.7036133,0,6.6103516-0.9746094,8.7226562-2.9238281c2.1108398-1.9492188,3.1674805-4.4833984,3.1674805-7.6020508
		c0-3.3134766-1.0722656-5.862793-3.2163086-7.6503906c-2.144043-1.7866211-5.1333008-2.6801758-8.9663086-2.6801758h-11.5976562
		V65.0976562z"/>
	<path class="st0" d="M377.9375,89.8037109c-6.9199219,6.855957-15.5791016,10.2822266-25.9736328,10.2822266
		c-10.3964844,0-19.0214844-3.4111328-25.8759766-10.2333984c-6.8554688-6.8222656-10.28125-15.1704102-10.28125-25.0473633
		c0-9.8100586,3.4599609-18.1430664,10.3789062-24.9985352c6.9199219-6.8544922,15.5771484-10.2822266,25.9736328-10.2822266
		c10.3945312,0,19.0195312,3.4111328,25.8759766,10.2333984c6.8535156,6.8222656,10.28125,15.171875,10.28125,25.0473633
		C388.3164062,74.6166992,384.8574219,82.949707,377.9375,89.8037109z M337.3447266,80.0092773
		c3.8984375,4.1586914,8.8359375,6.2373047,14.8144531,6.2373047c5.9765625,0,10.8818359-2.0620117,14.7158203-6.1889648
		c3.8330078-4.125,5.7509766-9.2099609,5.7509766-15.2524414c0-5.9770508-1.9492188-11.0449219-5.8476562-15.2036133
		c-3.8984375-4.1577148-8.8369141-6.237793-14.8144531-6.237793c-5.9785156,0-10.8837891,2.0634766-14.7167969,6.1889648
		c-3.8339844,4.1269531-5.75,9.2099609-5.75,15.2524414C331.4970703,70.7836914,333.4462891,75.8520508,337.3447266,80.0092773z"/>
</g>
<g>
	<path class="st0" d="M401.6699219,98.9165039V30.6938477h15.0087891v29.8232422l27.6787109-29.8232422h18.1279297
		l-27.7763672,28.9458008l29.0439453,39.2768555h-18.0302734l-21.1494141-29.043457l-7.8945312,8.1870117v20.8564453H401.6699219z"
		/>
</g>
<g>
	<path class="st0" d="M460.1455078,98.9165039l29.2382812-68.7099609h13.8398438l29.2382812,68.7099609h-15.6914062
		l-6.2373047-15.3012695h-28.8486328l-6.2373047,15.3012695H460.1455078z M487.0449219,70.3603516h18.1279297l-9.0644531-22.1235352
		L487.0449219,70.3603516z"/>
</g>
<g>
	<path class="st0" d="M272.9238281,185.5595703v-26.8994141l-26.2167969-41.3232422H264.25l16.2758789,27.3867188
		l16.5683594-27.3867188h17.0556641l-26.2167969,41.03125v27.1914062H272.9238281z"/>
	<path class="st0" d="M376.8642578,176.4462891c-6.9199219,6.8564453-15.578125,10.2822266-25.9726562,10.2822266
		c-10.3964844,0-19.0214844-3.4111328-25.8769531-10.2333984c-6.8544922-6.8222656-10.2807617-15.1699219-10.2807617-25.046875
		c0-9.8105469,3.4594727-18.1435547,10.378418-24.9990234c6.9199219-6.8544922,15.578125-10.2822266,25.9746094-10.2822266
		c10.3945312,0,19.0195312,3.4111328,25.875,10.2333984c6.8535156,6.8222656,10.28125,15.171875,10.28125,25.0478516
		C387.2431641,161.2597656,383.7841797,169.5927734,376.8642578,176.4462891z M336.2724609,166.6523438
		c3.8984375,4.1582031,8.8359375,6.2373047,14.8144531,6.2373047c5.9765625,0,10.8808594-2.0625,14.7148438-6.1894531
		c3.8339844-4.125,5.7519531-9.2099609,5.7519531-15.2519531c0-5.9775391-1.9492188-11.0449219-5.8476562-15.2041016
		c-3.8984375-4.1572266-8.8378906-6.2373047-14.8144531-6.2373047c-5.9785156,0-10.8847656,2.0634766-14.7167969,6.1884766
		c-3.8339844,4.1269531-5.75,9.2099609-5.75,15.2529297C330.4248047,157.4267578,332.3740234,162.4951172,336.2724609,166.6523438z"
		/>
	<path class="st0" d="M400.5947266,185.5595703v-68.2226562h15.0087891v29.8232422l27.6787109-29.8232422h18.1279297
		l-27.7763672,28.9453125l29.0439453,39.2773438h-18.0302734l-21.1494141-29.0439453l-7.8945312,8.1875v20.8564453H400.5947266z"/>
	<path class="st0" d="M471.7402344,185.5595703v-68.2226562h51.4589844v13.3515625h-36.546875v13.8398438h32.1611328v13.3525391
		h-32.1611328v14.3261719h37.0341797v13.3525391H471.7402344z"/>
</g>
<path class="st1" d="M212.4350128,186.6481934V33.1802063V186.6481934z"/>
<line class="st2" x1="212.4351959" y1="33.1803894" x2="212.4351959" y2="186.648407"/>
<polygon class="st3" points="154.3985138,145.6672668 142.6744843,169.6993103 112.0084915,160.4532776 123.7324905,136.4302673 
	132.3604889,139.0243225 "/>
<polygon class="st4" points="154.3985138,145.6672668 142.6744843,169.6993103 112.0084915,160.4532776 123.7324905,136.4302673 
	132.3604889,139.0243225 "/>
<polygon class="st3" points="142.6742096,169.6816711 142.6742096,189.9706726 112.0081863,180.7416992 112.0081863,160.4537048 "/>
<polygon class="st4" points="142.6742096,169.6816711 142.6742096,189.9706726 112.0081863,180.7416992 112.0081863,160.4537048 "/>
<polygon class="st5" points="135.4572906,112.3978577 135.4572906,132.6868591 132.3602753,139.0248718 123.7332535,136.4299011 "/>
<polygon class="st6" points="135.4572906,112.3978577 135.4572906,132.6868591 132.3602753,139.0248718 123.7332535,136.4299011 "/>
<polygon class="st3" points="135.4572906,112.3978577 123.7332535,136.4299011 93.1292801,127.2189026 104.8532791,103.1958923 "/>
<polygon class="st4" points="135.4572906,112.3978577 123.7332535,136.4299011 93.1292801,127.2189026 104.8532791,103.1958923 "/>
<polygon class="st3" points="123.7330093,136.4299622 112.0089798,160.4529724 81.4050064,151.2519836 93.1290054,127.2189636 "/>
<polygon class="st4" points="123.7330093,136.4299622 112.0089798,160.4529724 81.4050064,151.2519836 93.1290054,127.2189636 "/>
<polygon class="st7" points="112.0087051,160.4531555 112.0087051,180.742157 100.2846756,204.7651672 100.2846756,184.4851685 "/>
<polygon class="st6" points="112.0087051,160.4531555 112.0087051,180.742157 100.2846756,204.7651672 100.2846756,184.4851685 "/>
<polygon class="st3" points="100.2843094,184.4853821 100.2843094,204.7654114 69.6803055,195.563385 69.6803055,175.2743835 "/>
<polygon class="st4" points="100.2843094,184.4853821 100.2843094,204.7654114 69.6803055,195.563385 69.6803055,175.2743835 "/>
<polygon class="st3" points="93.1294937,127.2192688 81.4054642,151.2513123 50.6994743,142.004303 62.4234734,117.9803162 "/>
<polygon class="st4" points="93.1294937,127.2192688 81.4054642,151.2513123 50.6994743,142.004303 62.4234734,117.9803162 "/>
<polygon class="st3" points="81.405098,151.2515564 112.0090714,160.4535828 100.2840958,184.4855652 69.6810684,175.2745667 
	72.7780838,168.936615 "/>
<polygon class="st4" points="81.405098,151.2515564 112.0090714,160.4535828 100.2840958,184.4855652 69.6810684,175.2745667 
	72.7780838,168.936615 "/>
<polygon class="st8" points="81.405098,151.2515564 72.7780838,168.936615 50.8101006,162.3295593 50.8101006,142.0405579 "/>
<polygon class="st4" points="81.405098,151.2515564 72.7780838,168.936615 50.8101006,162.3295593 50.8101006,142.0405579 "/>
<polygon class="st7" points="154.4695892,145.5837708 154.4165802,165.9258118 142.6745758,189.9697876 142.6685638,169.6927795 "/>
<polygon class="st6" points="154.4695892,145.5837708 154.4165802,165.9258118 142.6745758,189.9697876 142.6685638,169.6927795 "/>
<polygon class="st9" points="81.3238907,130.9120789 81.3978653,151.2660828 69.6738663,175.2981262 69.5998611,154.9350891 "/>
<polygon class="st6" points="81.3238907,130.9120789 81.3978653,151.2660828 69.6738663,175.2981262 69.5998611,154.9350891 "/>
<polygon class="st10" points="81.3238907,130.9120789 69.5998611,154.9350891 38.9958916,145.7251282 50.7198906,121.7010803 
	59.356884,124.2961121 "/>
<polygon class="st4" points="81.3238907,130.9120789 69.5998611,154.9350891 38.9958916,145.7251282 50.7198906,121.7010803 
	59.356884,124.2961121 "/>
<polygon class="st5" points="74.1689835,73.6460876 74.1689835,93.9350891 62.4449577,117.9671326 62.4449577,97.6781311 "/>
<polygon class="st6" points="74.1689835,73.6460876 74.1689835,93.9350891 62.4449577,117.9671326 62.4449577,97.6781311 "/>
<polygon class="st11" points="74.1689835,73.6460876 62.4449577,97.6781311 31.849987,88.4671326 43.5739861,64.4441223 "/>
<polygon class="st4" points="74.1689835,73.6460876 62.4449577,97.6781311 31.849987,88.4671326 43.5739861,64.4441223 "/>
<polygon class="st10" points="69.5995865,154.9352722 69.5995865,175.2242737 38.9955864,166.0132751 38.9955864,145.7242737 "/>
<polygon class="st4" points="69.5995865,154.9352722 69.5995865,175.2242737 38.9955864,166.0132751 38.9955864,145.7242737 "/>
<polygon class="st12" points="62.4447136,97.6783142 62.4447136,117.9673157 59.3567009,124.2963562 50.7206841,121.7013245 "/>
<polygon class="st6" points="62.4447136,97.6783142 62.4447136,117.9673157 59.3567009,124.2963562 50.7206841,121.7013245 "/>
<polygon class="st11" points="62.4447136,97.6783142 50.7206841,121.7013245 20.1257133,112.4993591 23.2136955,106.162323 
	31.8497124,88.4673157 "/>
<polygon class="st4" points="62.4447136,97.6783142 50.7206841,121.7013245 20.1257133,112.4993591 23.2136955,106.162323 
	31.8497124,88.4673157 "/>
<polygon class="st13" points="178.0329132,77.1943665 178.0329132,97.4833679 166.3088837,121.5063782 166.3088837,101.2173767 "/>
<polygon class="st6" points="178.0329132,77.1943665 178.0329132,97.4833679 166.3088837,121.5063782 166.3088837,101.2173767 "/>
<polygon class="st14" points="178.0023956,77.2746887 166.2423859,101.370697 135.5553741,92.1407166 147.3153839,68.0447083 "/>
<polygon class="st4" points="178.0023956,77.2746887 166.2423859,101.370697 135.5553741,92.1407166 147.3153839,68.0447083 "/>
<polygon class="st13" points="166.308609,101.2175598 166.308609,121.5065613 154.406601,145.6805725 154.406601,125.391571 "/>
<polygon class="st6" points="166.308609,101.2175598 166.308609,121.5065613 154.406601,145.6805725 154.406601,125.391571 "/>
<polygon class="st14" points="166.149704,101.3471985 154.4256744,125.3792419 123.8306961,116.1682434 126.9186783,109.8392029 
	135.5547028,92.1452332 "/>
<polygon class="st4" points="166.149704,101.3471985 154.4256744,125.3792419 123.8306961,116.1682434 126.9186783,109.8392029 
	135.5547028,92.1452332 "/>
<polygon class="st14" points="154.4090118,125.3688049 154.4090118,145.6578064 123.814003,136.4468079 123.814003,116.1578064 "/>
<polygon class="st4" points="154.4090118,125.3688049 154.4090118,145.6578064 123.814003,136.4468079 123.814003,116.1578064 "/>
<polygon class="st14" points="147.3121185,68.0453796 135.5521088,92.1413879 104.8560867,82.9024353 116.6160965,58.806427 "/>
<polygon class="st4" points="147.3121185,68.0453796 135.5521088,92.1413879 104.8560867,82.9024353 116.6160965,58.806427 "/>
<polygon class="st14" points="135.5356903,92.1520081 126.8996658,109.8460388 104.8476639,103.1880188 104.8476639,82.8990173 "/>
<polygon class="st4" points="135.5356903,92.1520081 126.8996658,109.8460388 104.8476639,103.1880188 104.8476639,82.8990173 "/>
<polygon class="st14" points="116.6117935,58.8060608 104.8517838,82.9020691 74.164772,73.6720886 85.9247818,49.5760803 "/>
<polygon class="st4" points="116.6117935,58.8060608 104.8517838,82.9020691 74.164772,73.6720886 85.9247818,49.5760803 "/>
<polygon class="st13" points="104.8505936,82.9017639 104.8505936,103.1907654 93.126564,127.2228088 93.126564,106.9338074 "/>
<polygon class="st6" points="104.8505936,82.9017639 104.8505936,103.1907654 93.126564,127.2228088 93.126564,106.9338074 "/>
<polygon class="st14" points="104.8505936,82.9017639 93.126564,106.9338074 62.4295769,97.6938171 74.1535721,73.6708069 "/>
<polygon class="st4" points="104.8505936,82.9017639 93.126564,106.9338074 62.4295769,97.6938171 74.1535721,73.6708069 "/>
<polygon class="st14" points="93.0358963,106.9075012 93.0358963,127.1965027 62.4408989,117.9855042 62.4408989,97.6965027 "/>
<polygon class="st4" points="93.0358963,106.9075012 93.0358963,127.1965027 62.4408989,117.9855042 62.4408989,97.6965027 "/>
<polygon class="st9" points="130.8834076,193.4401855 130.8834076,173.1512146 142.6074066,149.1282043 142.6074066,169.4172058 "/>
<polyline class="st6" points="130.8834076,193.4401855 130.8834076,173.1512146 142.6074066,149.1282043 142.6074066,169.4172058 
	130.8834076,193.4401855 "/>
<polyline class="st10" points="100.2798843,163.9498596 130.8838654,173.151886 142.6078644,149.1288757 112.0038834,139.9269104 
	100.2508621,164.0628967 "/>
<polyline class="st4" points="100.2798843,163.9498596 130.8838654,173.151886 142.6078644,149.1288757 112.0038834,139.9269104 
	100.2508621,164.0628967 "/>
<polygon class="st10" points="131.030014,172.7461853 130.844986,193.5531921 100.2499771,184.3511963 100.4350052,163.54422 "/>
<polygon class="st4" points="131.030014,172.7461853 130.844986,193.5531921 100.2499771,184.3511963 100.4350052,163.54422 "/>
<polygon class="st9" points="38.9964104,145.7770081 38.9964104,125.4880676 50.7204094,101.4650574 50.7204094,121.7540588 "/>
<polyline class="st6" points="38.9964104,145.7770081 38.9964104,125.4880676 50.7204094,101.4650574 50.7204094,121.7540588 
	38.9964104,145.7770081 "/>
<polygon class="st10" points="20.1171989,92.2633972 50.7211723,101.4654236 38.9961967,125.4884338 8.3931694,116.2864075 "/>
<polygon class="st4" points="20.1171989,92.2633972 50.7211723,101.4654236 38.9961967,125.4884338 8.3931694,116.2864075 "/>
<polygon class="st10" points="38.9964104,145.7770081 8.3253899,136.8010559 8.3924065,116.2870178 38.9964104,125.4880676 
	38.9874077,145.1520081 "/>
<polygon class="st15" points="38.9964104,145.7770081 8.3253899,136.8010559 8.3924065,116.2870178 38.9964104,125.4880676 
	38.9874077,145.1520081 "/>
<polygon class="st12" points="70.4528885,62.1365662 70.5208817,41.5605774 82.2808609,17.4645691 82.2808609,37.8146057 "/>
<polyline class="st6" points="70.4528885,62.1365662 70.5208817,41.5605774 82.2808609,17.4645691 82.2808609,37.8146057 
	70.4528885,62.1365662 "/>
<polygon class="st11" points="51.584301,8.2345886 82.2802811,17.4646301 70.5212784,41.5606384 39.8242912,32.3305969 "/>
<polygon class="st4" points="51.584301,8.2345886 82.2802811,17.4646301 70.5212784,41.5606384 39.8242912,32.3305969 "/>
<polyline class="st11" points="70.5207901,61.910614 70.5207901,41.5606384 39.8247795,32.330658 39.7567863,52.9066467 
	70.4527664,62.1366272 "/>
<polyline class="st15" points="70.5207901,61.910614 70.5207901,41.5606384 39.8247795,32.330658 39.7567863,52.9066467 
	70.4527664,62.1366272 "/>
<g>
</g>
<g>
</g>
<g>
</g>
<g>
</g>
<g>
</g>
<g>
</g>
<g>
</g>
<g>
</g>
<g>
</g>
<g>
</g>
<g>
</g>
</svg>
