<?xml version="1.0" encoding="utf-8"?>
<!-- Generator: Adobe Illustrator 26.5.0, SVG Export Plug-In . SVG Version: 6.00 Build 0)  -->
<svg version="1.1" id="Layer_1" xmlns="http://www.w3.org/2000/svg" xmlns:xlink="http://www.w3.org/1999/xlink" x="0px" y="0px"
	 viewBox="0 0 257.9124451 234.68013" style="enable-background:new 0 0 257.9124451 234.68013;" xml:space="preserve">
<style type="text/css">
	.st0{fill:#F8B333;}
	.st1{fill:none;stroke:#4E2C18;stroke-width:0.5;stroke-linecap:round;stroke-linejoin:round;}
	.st2{fill:#39A9E0;}
	.st3{fill:#E84535;}
	.st4{fill:#036635;}
	.st5{fill:#32AC66;}
	.st6{fill:#EE7E22;}
	.st7{fill:#B72025;}
</style>
<polygon class="st0" points="111.7288589,138.0175018 94.452858,173.4165039 49.3568497,159.8445129 66.6338577,124.4455185 
	79.3588333,128.2685089 "/>
<polygon class="st1" points="111.7288589,138.0175018 94.452858,173.4165039 49.3568497,159.8445129 66.6338577,124.4455185 
	79.3588333,128.2685089 "/>
<polygon class="st2" points="101.5030899,53.3168106 84.2270889,88.7288132 39.1450882,75.1568375 56.4210892,39.7578201 "/>
<polygon class="st1" points="101.5030899,53.3168106 84.2270889,88.7288132 39.1450882,75.1568375 56.4210892,39.7578201 "/>
<polygon class="st0" points="94.4527969,173.4165955 94.4527969,203.3126068 49.3577957,189.7406006 49.3577957,159.8446045 "/>
<polygon class="st1" points="94.4527969,173.4165955 94.4527969,203.3126068 49.3577957,189.7406006 49.3577957,159.8446045 "/>
<polygon class="st3" points="139.5481873,186.9889069 139.5481873,216.8849182 94.4531631,203.312912 94.4531631,173.4169159 "/>
<polygon class="st1" points="139.5481873,186.9889069 139.5481873,216.8849182 94.4531631,203.312912 94.4531631,173.4169159 "/>
<polygon class="st2" points="84.0682755,88.7291031 66.6332474,124.4451065 21.5512753,110.886116 26.1022701,101.5471115 
	38.9862747,75.1571121 "/>
<polygon class="st1" points="84.0682755,88.7291031 66.6332474,124.4451065 21.5512753,110.886116 26.1022701,101.5471115 
	38.9862747,75.1571121 "/>
<polygon class="st0" points="66.633461,124.4453049 49.35746,159.8442993 4.2754579,146.2853088 21.5514584,110.8863144 "/>
<polygon class="st1" points="66.633461,124.4453049 49.35746,159.8442993 4.2754579,146.2853088 21.5514584,110.8863144 "/>
<polygon class="st4" points="253.9321594,59.0947952 253.9321594,88.9908066 236.6561584,124.3897934 236.6561584,94.4937973 "/>
<polygon class="st1" points="253.9321594,59.0947952 253.9321594,88.9908066 236.6561584,124.3897934 236.6561584,94.4937973 "/>
<polygon class="st5" points="254.3105774,58.8716202 236.9815369,94.378624 191.7625427,80.777626 209.0915222,45.2716446 "/>
<polygon class="st1" points="254.3105774,58.8716202 236.9815369,94.378624 191.7625427,80.777626 209.0915222,45.2716446 "/>
<polygon class="st4" points="236.6558533,94.4939041 236.6558533,124.3899155 219.3798523,159.8018951 219.3798523,129.905899 "/>
<polygon class="st1" points="236.6558533,94.4939041 236.6558533,124.3899155 219.3798523,159.8018951 219.3798523,129.905899 "/>
<polygon class="st5" points="236.6558533,94.4939041 219.3798523,129.905899 174.297821,116.3339157 178.8478088,107.0079117 
	191.573822,80.9349136 "/>
<polygon class="st1" points="236.6558533,94.4939041 219.3798523,129.905899 174.297821,116.3339157 178.8478088,107.0079117 
	191.573822,80.9349136 "/>
<polygon class="st3" points="219.2812805,129.9788055 202.0052795,165.3908081 156.9232483,151.8188171 161.4732361,142.4928131 
	174.1992493,116.4198227 "/>
<polygon class="st1" points="219.2812805,129.9788055 202.0052795,165.3908081 156.9232483,151.8188171 161.4732361,142.4928131 
	174.1992493,116.4198227 "/>
<polygon class="st3" points="174.1858826,116.2214127 156.9098816,151.6334076 111.827858,138.0614166 116.3778458,128.7354126 
	129.1038513,102.6624222 "/>
<polygon class="st1" points="174.1858826,116.2214127 156.9098816,151.6334076 111.827858,138.0614166 116.3778458,128.7354126 
	129.1038513,102.6624222 "/>
<polygon class="st5" points="209.0915833,45.2713089 191.7625427,80.7783279 146.5305481,67.1643143 163.8595276,31.6583309 "/>
<polygon class="st1" points="209.0915833,45.2713089 191.7625427,80.7783279 146.5305481,67.1643143 163.8595276,31.6583309 "/>
<polygon class="st3" points="191.7628479,80.7958145 174.4338074,116.3028183 129.2018127,102.6888199 146.5307922,67.1828384 "/>
<polygon class="st1" points="191.7628479,80.7958145 174.4338074,116.3028183 129.2018127,102.6888199 146.5307922,67.1828384 "/>
<polygon class="st5" points="163.8592834,31.6578121 146.5302429,67.1648331 101.3112564,53.5638199 118.6402359,18.0578365 "/>
<polygon class="st1" points="163.8592834,31.6578121 146.5302429,67.1648331 101.3112564,53.5638199 118.6402359,18.0578365 "/>
<polygon class="st5" points="146.5305481,67.1643143 128.884491,102.4573135 83.8025284,88.8853226 101.3115005,53.5643387 "/>
<polygon class="st1" points="146.5305481,67.1643143 128.884491,102.4573135 83.8025284,88.8853226 101.3115005,53.5643387 "/>
<polygon class="st3" points="128.9918518,102.6053085 111.7158585,138.0173035 66.6338577,124.4453201 83.9098282,89.0463181 "/>
<polygon class="st1" points="128.9918518,102.6053085 111.7158585,138.0173035 66.6338577,124.4453201 83.9098282,89.0463181 "/>
<polygon class="st6" points="184.9272766,230.4721069 184.9272766,200.5761108 202.2032166,165.1771088 202.2032166,195.0731049 "/>
<polyline class="st1" points="184.9272766,230.4721069 184.9272766,200.5761108 202.2032166,165.1771088 202.2032166,195.0731049 
	184.9272766,230.4721069 "/>
<polyline class="st7" points="202.5205383,195.2583008 202.5205383,165.3623047 219.7964783,129.9633026 219.1625061,159.7003021 
	201.8865051,195.0993042 "/>
<polyline class="st1" points="202.5205383,195.2583008 202.5205383,165.3623047 219.7964783,129.9633026 219.1625061,159.7003021 
	201.8865051,195.0993042 "/>
<polyline class="st0" points="156.9791565,151.8491058 202.0741272,165.4081116 184.7981262,200.8071136 139.7031555,187.2481079 
	"/>
<polyline class="st1" points="156.9791565,151.8491058 202.0741272,165.4081116 184.7981262,200.8071136 139.7031555,187.2481079 
	"/>
<polyline class="st3" points="111.9326553,138.1316986 157.0276184,151.6907043 139.7516174,187.0897064 94.6566544,173.5307007 "/>
<polyline class="st1" points="111.9326553,138.1316986 157.0276184,151.6907043 139.7516174,187.0897064 94.6566544,173.5307007 "/>
<polygon class="st0" points="184.6302795,200.6488037 184.6302795,230.5448151 139.5482483,216.9858093 139.5482483,187.0898132 "/>
<polygon class="st1" points="184.6302795,200.6488037 184.6302795,230.5448151 139.5482483,216.9858093 139.5482483,187.0898132 "/>
<polygon class="st0" points="49.3572769,160.1074982 49.3572769,190.0035095 4.2752748,176.4445038 4.2752748,146.5485077 "/>
<polygon class="st1" points="49.3572769,160.1074982 49.3572769,190.0035095 4.2752748,176.4445038 4.2752748,146.5485077 "/>
<polygon class="st2" points="56.4051895,40.315712 101.6371841,53.9157181 118.9661636,18.4097347 73.734169,4.808722 "/>
<polygon class="st1" points="56.4051895,40.315712 101.6371841,53.9157181 118.9661636,18.4097347 73.734169,4.808722 "/>
<g>
</g>
<g>
</g>
<g>
</g>
<g>
</g>
<g>
</g>
<g>
</g>
</svg>
