<?xml version="1.0" encoding="utf-8"?>
<!-- Generator: Adobe Illustrator 26.5.0, SVG Export Plug-In . SVG Version: 6.00 Build 0)  -->
<svg version="1.1" id="Layer_1" xmlns="http://www.w3.org/2000/svg" xmlns:xlink="http://www.w3.org/1999/xlink" x="0px" y="0px"
	 viewBox="0 0 255.7478485 292.8229675" style="enable-background:new 0 0 255.7478485 292.8229675;" xml:space="preserve">
<style type="text/css">
	.st0{fill:#E84535;}
	.st1{fill:none;stroke:#4E2C18;stroke-width:0.5;stroke-linecap:round;stroke-linejoin:round;}
	.st2{fill:#B4DDF5;}
	.st3{fill:#B72025;}
	.st4{fill:#F8F6EA;}
	.st5{fill:#EE7E22;}
	.st6{fill:#FAC032;}
	.st7{fill:#39A9E0;}
	.st8{fill:#2072B9;}
	.st9{fill:#036635;}
	.st10{fill:#32AC66;}
	.st11{fill:none;stroke:#4D2D19;stroke-width:0.5;stroke-linecap:round;stroke-linejoin:round;}
</style>
<polygon class="st0" points="216.7683716,204.5118561 199.9493713,238.9868622 155.9593506,225.7228851 172.7783508,191.26091 
	185.1533508,194.9828949 "/>
<polygon class="st1" points="216.7683716,204.5118561 199.9493713,238.9868622 155.9593506,225.7228851 172.7783508,191.26091 
	185.1533508,194.9828949 "/>
<polygon class="st0" points="199.949585,238.9610443 199.949585,268.06604 155.9585571,254.8270721 155.9585571,225.7230682 "/>
<polygon class="st1" points="199.949585,238.9610443 199.949585,268.06604 155.9585571,254.8270721 155.9585571,225.7230682 "/>
<polygon class="st2" points="189.5967712,156.7860565 189.5967712,185.891098 185.1537476,194.983078 172.777771,191.2610931 "/>
<polygon class="st1" points="189.5967712,156.7860565 189.5967712,185.891098 185.1537476,194.983078 172.777771,191.2610931 "/>
<polygon class="st0" points="189.5967712,156.7860565 172.777771,191.2610931 128.87677,178.0480804 145.6947632,143.5861053 "/>
<polygon class="st1" points="189.5967712,156.7860565 172.777771,191.2610931 128.87677,178.0480804 145.6947632,143.5861053 "/>
<polygon class="st0" points="172.7778625,191.2607269 155.9588623,225.7227325 112.0578537,212.5227509 128.8758545,178.0477753 "/>
<polygon class="st1" points="172.7778625,191.2607269 155.9588623,225.7227325 112.0578537,212.5227509 128.8758545,178.0477753 "/>
<polygon class="st3" points="155.9590759,225.722641 155.9590759,254.827652 139.1400757,289.2886353 139.1400757,260.1976318 "/>
<polygon class="st1" points="155.9590759,225.722641 155.9590759,254.827652 139.1400757,289.2886353 139.1400757,260.1976318 "/>
<polygon class="st0" points="139.1402893,260.1974487 139.1402893,289.2894592 95.2382736,276.0894775 95.2382736,246.9844818 "/>
<polygon class="st1" points="139.1402893,260.1974487 139.1402893,289.2894592 95.2382736,276.0894775 95.2382736,246.9844818 "/>
<polygon class="st0" points="128.8763733,178.0478363 112.0573654,212.5228424 68.0093613,199.2568512 84.8283615,164.7948456 "/>
<polygon class="st1" points="128.8763733,178.0478363 112.0573654,212.5228424 68.0093613,199.2568512 84.8283615,164.7948456 "/>
<polygon class="st0" points="112.0575638,212.5225372 155.9595642,225.7225494 139.140564,260.1975403 95.2385635,246.9845428 
	99.6815567,237.8925629 "/>
<polygon class="st1" points="112.0575638,212.5225372 155.9595642,225.7225494 139.140564,260.1975403 95.2385635,246.9845428 
	99.6815567,237.8925629 "/>
<polygon class="st4" points="112.0575638,212.5225372 99.6815567,237.8925629 68.1685562,228.414566 68.1685562,199.3095551 "/>
<polygon class="st1" points="112.0575638,212.5225372 99.6815567,237.8925629 68.1685562,228.414566 68.1685562,199.3095551 "/>
<polygon class="st3" points="216.8702698,204.3921661 216.7942505,233.5731659 199.9492493,268.0661621 199.9412537,238.9771881 "/>
<polygon class="st1" points="216.8702698,204.3921661 216.7942505,233.5731659 199.9492493,268.0661621 199.9412537,238.9771881 "/>
<polygon class="st5" points="111.9409714,183.3451385 112.0469589,212.5431671 95.2279587,247.0181427 95.1219711,217.8071442 "/>
<polygon class="st1" points="111.9409714,183.3451385 112.0469589,212.5431671 95.2279587,247.0181427 95.1219711,217.8071442 "/>
<polygon class="st6" points="111.9409714,183.3451385 95.1219711,217.8071442 51.220974,204.594162 68.0389633,170.1321869 
	80.4279709,173.8541718 "/>
<polygon class="st1" points="111.9409714,183.3451385 95.1219711,217.8071442 51.220974,204.594162 68.0389633,170.1321869 
	80.4279709,173.8541718 "/>
<polygon class="st2" points="101.6771622,101.1956558 101.6771622,130.300705 84.8581619,164.774704 84.8581619,135.6707001 "/>
<polygon class="st1" points="101.6771622,101.1956558 101.6771622,130.300705 84.8581619,164.774704 84.8581619,135.6707001 "/>
<polygon class="st7" points="101.6771622,101.1956558 84.8581619,135.6707001 40.9701653,122.4576797 57.7881584,87.9957047 "/>
<polygon class="st1" points="101.6771622,101.1956558 84.8581619,135.6707001 40.9701653,122.4576797 57.7881584,87.9957047 "/>
<polygon class="st6" points="95.1221695,217.8070526 95.1221695,246.9120636 51.2201653,233.6990814 51.2201653,204.5940704 "/>
<polygon class="st1" points="95.1221695,217.8070526 95.1221695,246.9120636 51.2201653,233.6990814 51.2201653,204.5940704 "/>
<polygon class="st8" points="84.8582687,135.6703339 84.8582687,164.7753754 80.4282608,173.8543549 68.0392685,170.13237 "/>
<polygon class="st1" points="84.8582687,135.6703339 84.8582687,164.7753754 80.4282608,173.8543549 68.0392685,170.13237 "/>
<polygon class="st7" points="84.8582687,135.6703339 68.0392685,170.13237 24.1512718,156.9323578 28.5812645,147.8403778 
	40.969265,122.4573746 "/>
<polygon class="st1" points="84.8582687,135.6703339 68.0392685,170.13237 24.1512718,156.9323578 28.5812645,147.8403778 
	40.969265,122.4573746 "/>
<polygon class="st9" points="250.6725769,106.2858658 250.6725769,135.3909149 233.8535767,169.8519135 233.8535767,140.7479095 "/>
<polygon class="st1" points="250.6725769,106.2858658 250.6725769,135.3909149 233.8535767,169.8519135 233.8535767,140.7479095 "/>
<polygon class="st10" points="250.6287842,106.4009171 233.7587585,140.9679413 189.7367859,127.7269669 206.606781,93.1609268 "/>
<polygon class="st1" points="250.6287842,106.4009171 233.7587585,140.9679413 189.7367859,127.7269669 206.606781,93.1609268 "/>
<polygon class="st9" points="233.8537903,140.7476654 233.8537903,169.8527069 216.7807617,204.5306854 216.7807617,175.425705 "/>
<polygon class="st1" points="233.8537903,140.7476654 233.8537903,169.8527069 216.7807617,204.5306854 216.7807617,175.425705 "/>
<polygon class="st10" points="233.6257629,140.9336395 216.8067627,175.4086761 172.9187622,162.1956635 177.3487549,153.116684 
	189.7367554,127.7336807 "/>
<polygon class="st1" points="233.6257629,140.9336395 216.8067627,175.4086761 172.9187622,162.1956635 177.3487549,153.116684 
	189.7367554,127.7336807 "/>
<polygon class="st10" points="216.7834778,175.3931732 216.7834778,204.4981842 172.8944702,191.285202 172.8944702,162.1802216 "/>
<polygon class="st1" points="216.7834778,175.3931732 216.7834778,204.4981842 172.8944702,191.285202 172.8944702,162.1802216 "/>
<polygon class="st10" points="206.6026917,93.161232 189.732666,127.727272 145.6976929,114.4742813 162.567688,79.9082413 "/>
<polygon class="st1" points="206.6026917,93.161232 189.732666,127.727272 145.6976929,114.4742813 162.567688,79.9082413 "/>
<polygon class="st10" points="189.7091675,127.7427139 177.3201599,153.1257782 145.6871643,143.5737762 145.6871643,114.4697647 
	"/>
<polygon class="st1" points="189.7091675,127.7427139 177.3201599,153.1257782 145.6871643,143.5737762 145.6871643,114.4697647 "/>
<polygon class="st10" points="162.5624695,79.9073257 145.6924438,114.4733658 101.6704636,101.2333755 118.5404587,66.6673355 "/>
<polygon class="st1" points="162.5624695,79.9073257 145.6924438,114.4733658 101.6704636,101.2333755 118.5404587,66.6673355 "/>
<polygon class="st9" points="145.6906738,114.4732437 145.6906738,143.5782928 128.8716736,178.0522919 128.8716736,148.948288 "/>
<polygon class="st1" points="145.6906738,114.4732437 145.6906738,143.5782928 128.8716736,178.0522919 128.8716736,148.948288 "/>
<polygon class="st10" points="145.6906738,114.4732437 128.8716736,148.948288 84.8366623,135.6932831 101.6556625,101.2313004 "/>
<polygon class="st1" points="145.6906738,114.4732437 128.8716736,148.948288 84.8366623,135.6932831 101.6556625,101.2313004 "/>
<polygon class="st10" points="128.7421875,148.9098358 128.7421875,178.0148773 84.8531723,164.8018646 84.8531723,135.6968842 "/>
<polygon class="st1" points="128.7421875,148.9098358 128.7421875,178.0148773 84.8531723,164.8018646 84.8531723,135.6968842 "/>
<polygon class="st5" points="183.0353699,273.043335 183.0353699,243.9383698 199.8543701,209.4773712 199.8543701,238.5813751 "/>
<polyline class="st1" points="183.0353699,273.043335 183.0353699,243.9383698 199.8543701,209.4773712 199.8543701,238.5813751 
	183.0353699,273.043335 "/>
<polyline class="st6" points="139.1338806,230.7386627 183.0358582,243.9386749 199.8538818,209.4766693 155.9528809,196.2767181 
	139.0918579,230.9006805 "/>
<polyline class="st1" points="139.1338806,230.7386627 183.0358582,243.9386749 199.8538818,209.4766693 155.9528809,196.2767181 
	139.0918579,230.9006805 "/>
<polygon class="st6" points="183.2457886,243.357254 182.9807739,273.2052612 139.0917664,260.005249 139.356781,230.1572723 "/>
<polygon class="st1" points="183.2457886,243.357254 182.9807739,273.2052612 139.0917664,260.005249 139.356781,230.1572723 "/>
<polygon class="st5" points="51.2211723,204.6691437 51.2211723,175.5641937 68.0401688,141.1031952 68.0401688,170.2071991 "/>
<polyline class="st1" points="51.2211723,204.6691437 51.2211723,175.5641937 68.0401688,141.1031952 68.0401688,170.2071991 
	51.2211723,204.6691437 "/>
<polygon class="st6" points="24.1384697,127.902626 68.0404587,141.1026459 51.2214622,175.564682 7.3194695,162.3646698 "/>
<polygon class="st1" points="24.1384697,127.902626 68.0404587,141.1026459 51.2214622,175.564682 7.3194695,162.3646698 "/>
<polygon class="st6" points="51.2211723,204.6691437 7.2221642,191.79216 7.3191643,162.3641815 51.2211723,175.5641937 
	51.2091637,203.7731476 "/>
<polygon class="st11" points="51.2211723,204.6691437 7.2221642,191.79216 7.3191643,162.3641815 51.2211723,175.5641937 
	51.2091637,203.7731476 "/>
<polygon class="st8" points="96.3462753,84.6849136 96.4432602,55.1679497 113.3132706,20.6009331 113.3132706,49.7939262 "/>
<polyline class="st1" points="96.3462753,84.6849136 96.4432602,55.1679497 113.3132706,20.6009331 113.3132706,49.7939262 
	96.3462753,84.6849136 "/>
<polygon class="st7" points="69.2787704,7.3612475 113.3137589,20.6012993 96.4437637,55.1682549 52.4087639,41.9272881 "/>
<polygon class="st1" points="69.2787704,7.3612475 113.3137589,20.6012993 96.4437637,55.1682549 52.4087639,41.9272881 "/>
<polyline class="st7" points="96.4436722,84.3607559 96.4436722,55.1677666 52.4086723,41.9277763 52.3116722,71.4448013 
	96.3466721,84.6847916 "/>
<polyline class="st11" points="96.4436722,84.3607559 96.4436722,55.1677666 52.4086723,41.9277763 52.3116722,71.4448013 
	96.3466721,84.6847916 "/>
<g>
</g>
<g>
</g>
<g>
</g>
<g>
</g>
<g>
</g>
<g>
</g>
</svg>
