<?xml version="1.0" encoding="UTF-8" standalone="no"?>
<!DOCTYPE svg PUBLIC "-//W3C//DTD SVG 1.1//EN"
 "http://www.w3.org/Graphics/SVG/1.1/DTD/svg11.dtd">
<!-- Generated by graphviz version 12.2.1 (20241206.2353)
 -->
<!-- Title: pattern Pages: 1 -->
<svg width="231pt" height="242pt"
 viewBox="0.00 0.00 230.86 242.49" xmlns="http://www.w3.org/2000/svg" xmlns:xlink="http://www.w3.org/1999/xlink">
<g id="graph0" class="graph" transform="scale(1 1) rotate(0) translate(4 238.49)">
<title>pattern</title>
<polygon fill="white" stroke="none" points="-4,4 -4,-238.49 226.86,-238.49 226.86,4 -4,4"/>
<!-- A -->
<g id="node1" class="node">
<title>A</title>
<ellipse fill="lightgray" stroke="black" cx="25.93" cy="-216.49" rx="18" ry="18"/>
<text text-anchor="middle" x="25.93" y="-211.44" font-family="Times New Roman,serif" font-size="14.00">A</text>
</g>
<!-- B -->
<g id="node2" class="node">
<title>B</title>
<ellipse fill="lightgray" stroke="black" cx="82.36" cy="-164.09" rx="18" ry="18"/>
<text text-anchor="middle" x="82.36" y="-159.04" font-family="Times New Roman,serif" font-size="14.00">B</text>
</g>
<!-- A&#45;&#45;B -->
<g id="edge1" class="edge">
<title>A&#45;&#45;B</title>
<path fill="none" stroke="black" d="M39.3,-204.07C48.3,-195.72 60.11,-184.75 69.08,-176.42"/>
</g>
<!-- C -->
<g id="node3" class="node">
<title>C</title>
<ellipse fill="lightgray" stroke="black" cx="18" cy="-142.86" rx="18" ry="18"/>
<text text-anchor="middle" x="18" y="-137.81" font-family="Times New Roman,serif" font-size="14.00">C</text>
</g>
<!-- A&#45;&#45;C -->
<g id="edge2" class="edge">
<title>A&#45;&#45;C</title>
<path fill="none" stroke="black" d="M23.97,-198.29C22.75,-186.96 21.18,-172.44 19.96,-161.11"/>
</g>
<!-- B&#45;&#45;C -->
<g id="edge3" class="edge">
<title>B&#45;&#45;C</title>
<path fill="none" stroke="black" d="M65.11,-158.4C55.88,-155.36 44.54,-151.62 35.29,-148.57"/>
</g>
<!-- D -->
<g id="node4" class="node">
<title>D</title>
<ellipse fill="lightgray" stroke="black" cx="160.4" cy="-180.06" rx="18" ry="18"/>
<text text-anchor="middle" x="160.4" y="-175.01" font-family="Times New Roman,serif" font-size="14.00">D</text>
</g>
<!-- B&#45;&#45;D -->
<g id="edge4" class="edge">
<title>B&#45;&#45;D</title>
<path fill="none" stroke="black" d="M100.46,-167.8C113.07,-170.37 129.81,-173.8 142.4,-176.37"/>
</g>
<!-- E -->
<g id="node5" class="node">
<title>E</title>
<ellipse fill="lightgray" stroke="black" cx="69.84" cy="-84.41" rx="18" ry="18"/>
<text text-anchor="middle" x="69.84" y="-79.36" font-family="Times New Roman,serif" font-size="14.00">E</text>
</g>
<!-- B&#45;&#45;E -->
<g id="edge5" class="edge">
<title>B&#45;&#45;E</title>
<path fill="none" stroke="black" d="M79.52,-146.01C77.47,-132.97 74.71,-115.44 72.67,-102.42"/>
</g>
<!-- C&#45;&#45;E -->
<g id="edge6" class="edge">
<title>C&#45;&#45;E</title>
<path fill="none" stroke="black" d="M30.02,-129.31C38.4,-119.86 49.52,-107.32 57.88,-97.89"/>
</g>
<!-- F -->
<g id="node6" class="node">
<title>F</title>
<ellipse fill="lightgray" stroke="black" cx="204.86" cy="-114.27" rx="18" ry="18"/>
<text text-anchor="middle" x="204.86" y="-109.22" font-family="Times New Roman,serif" font-size="14.00">F</text>
</g>
<!-- D&#45;&#45;F -->
<g id="edge7" class="edge">
<title>D&#45;&#45;F</title>
<path fill="none" stroke="black" d="M170.71,-164.8C177.9,-154.17 187.44,-140.05 194.61,-129.44"/>
</g>
<!-- G -->
<g id="node7" class="node">
<title>G</title>
<ellipse fill="lightgray" stroke="black" cx="148.16" cy="-58.79" rx="18" ry="18"/>
<text text-anchor="middle" x="148.16" y="-53.74" font-family="Times New Roman,serif" font-size="14.00">G</text>
</g>
<!-- E&#45;&#45;G -->
<g id="edge8" class="edge">
<title>E&#45;&#45;G</title>
<path fill="none" stroke="black" d="M87.22,-78.73C100.2,-74.48 117.86,-68.7 130.82,-64.46"/>
</g>
<!-- H -->
<g id="node8" class="node">
<title>H</title>
<ellipse fill="lightgray" stroke="black" cx="26.38" cy="-18" rx="18" ry="18"/>
<text text-anchor="middle" x="26.38" y="-12.95" font-family="Times New Roman,serif" font-size="14.00">H</text>
</g>
<!-- E&#45;&#45;H -->
<g id="edge9" class="edge">
<title>E&#45;&#45;H</title>
<path fill="none" stroke="black" d="M59.76,-69.01C52.74,-58.28 43.41,-44.03 36.41,-33.32"/>
</g>
<!-- F&#45;&#45;G -->
<g id="edge10" class="edge">
<title>F&#45;&#45;G</title>
<path fill="none" stroke="black" d="M191.71,-101.4C182.55,-92.44 170.38,-80.54 161.24,-71.59"/>
</g>
</g>
</svg>
